<?xml version="1.0" encoding="UTF-8"?>
<svg version="1.1" xmlns="http://www.w3.org/2000/svg" width="512" height="512">
<path d="M0 0 C1.44011969 -0.00571379 2.88023486 -0.01268192 4.32034302 -0.02079773 C8.20479637 -0.03863419 12.08902265 -0.0375787 15.97350454 -0.03185534 C19.2286715 -0.02874927 22.48379572 -0.03487171 25.73895657 -0.04089409 C33.42496605 -0.05490683 41.1108643 -0.05340555 48.796875 -0.04199219 C56.69837093 -0.03051736 64.59952717 -0.04458327 72.50097835 -0.07138866 C79.31067715 -0.0936164 86.12026987 -0.10016708 92.93000233 -0.09431225 C96.98579559 -0.09095793 101.04137125 -0.09325515 105.09713364 -0.11056328 C108.91408389 -0.12614354 112.73053495 -0.12195582 116.54746628 -0.10325813 C117.93890799 -0.09960246 119.33038763 -0.10259127 120.72179413 -0.11314392 C136.34599876 -0.22248732 147.7630626 4.08762825 159.21923828 14.71655273 C169.49288623 25.57172793 171.9725251 37.50285903 171.65673828 52.02905273 C171.64320313 53.22401367 171.62966797 54.41897461 171.61572266 55.65014648 C171.58070121 58.56860074 171.53158821 61.48607621 171.46923828 64.40405273 C172.36966858 64.39517029 173.27009888 64.38628784 174.19781494 64.37713623 C182.72938773 64.29662053 191.26083089 64.23590167 199.79269791 64.19680405 C204.17788294 64.17602702 208.56275115 64.14789287 212.94775391 64.10229492 C217.1882814 64.05848081 221.42850628 64.03484152 225.66924286 64.02454376 C227.27820339 64.01721561 228.88714944 64.00290744 230.49597931 63.98113251 C246.92788525 63.76780097 258.98004976 67.36115682 271.21923828 78.71655273 C280.79338929 88.83263682 283.93588046 100.38481375 283.85691833 114.00387573 C283.86499664 115.6945826 283.86499664 115.6945826 283.87323815 117.41944516 C283.88748005 121.17468118 283.88042307 124.92956283 283.87329102 128.68481445 C283.87899655 131.38600774 283.88586153 134.08717608 283.89408875 136.7883606 C283.91123817 143.35101193 283.91212478 149.91356735 283.90687584 156.47623526 C283.90282558 161.81343229 283.90428784 167.15060109 283.9096241 172.48779678 C283.91037252 173.24897691 283.91112094 174.01015704 283.91189205 174.79440323 C283.91342361 176.34101112 283.91496196 177.88761901 283.91650701 179.43422689 C283.93021819 193.92075501 283.92480418 208.40722905 283.9133218 222.89375593 C283.90339161 236.12851338 283.91632881 249.36313099 283.94025599 262.59786688 C283.96467549 276.20812529 283.97424782 289.81831865 283.96760327 303.42859852 C283.96411727 311.06139705 283.96630197 318.69408808 283.98385429 326.32686996 C283.99861203 332.82465238 283.99916535 339.3222516 283.98178338 345.82003056 C283.97329985 349.13106203 283.97324568 352.44149967 283.98643494 355.75255585 C283.99967519 359.35209673 283.98806898 362.95075871 283.97044373 366.55026245 C283.98004873 367.58238889 283.98965374 368.61451532 283.99954981 369.67791831 C283.86126907 383.47377904 278.41851563 394.17142951 269.15673828 404.15405273 C257.7906069 414.91128422 245.34695691 416.85902122 230.22488403 416.79173279 C228.6903761 416.79591109 227.15587126 416.80139133 225.6213721 416.8080526 C221.42568534 416.82246083 217.2301958 416.81827701 213.03449845 416.81088579 C208.50132309 416.80614493 203.96818983 416.81867208 199.43502808 416.8289032 C190.56229075 416.84607863 181.68962427 416.8469338 172.81687464 416.84169029 C165.60324965 416.83764498 158.38964557 416.83909645 151.17602158 416.84443855 C149.63459937 416.84556119 149.63459937 416.84556119 148.06203731 416.8467065 C145.97427742 416.84823801 143.88651754 416.84977636 141.79875766 416.85132147 C122.23046249 416.865042 102.66220732 416.85961198 83.09391306 416.84813625 C65.20327057 416.83820462 47.31273151 416.85114415 29.42210497 416.87507045 C11.03867795 416.89947 -7.34470092 416.90906719 -25.72814381 416.90241772 C-36.04371659 416.89892737 -46.35920984 416.9011454 -56.67477036 416.91866875 C-65.45623946 416.93340142 -74.23757302 416.93401221 -83.0190395 416.91659784 C-87.49651967 416.90809423 -91.97375782 416.90592263 -96.45122528 416.92124939 C-100.5558504 416.93512556 -104.66002681 416.93029601 -108.76462616 416.91101015 C-110.24366831 416.90725878 -111.72274665 416.9101471 -113.20175646 416.9206218 C-129.10220782 417.02516004 -140.60047145 412.92840848 -152.28076172 402.09155273 C-161.85491273 391.97546865 -164.9974039 380.42329172 -164.91844177 366.80422974 C-164.92382731 365.67709183 -164.92921285 364.54995392 -164.93476158 363.38866031 C-164.94900348 359.63342429 -164.94194651 355.87854264 -164.93481445 352.12329102 C-164.94051999 349.42209773 -164.94738497 346.72092938 -164.95561218 344.01974487 C-164.97276161 337.45709354 -164.97364821 330.89453812 -164.96839928 324.33187021 C-164.96434902 318.99467318 -164.96581128 313.65750438 -164.97114754 308.32030869 C-164.97189596 307.55912856 -164.97264438 306.79794843 -164.97341548 306.01370224 C-164.97494705 304.46709435 -164.97648539 302.92048646 -164.97803045 301.37387858 C-164.99174162 286.88735046 -164.98632762 272.40087642 -164.97484524 257.91434954 C-164.96491505 244.67959209 -164.97785225 231.44497448 -165.00177943 218.21023859 C-165.02619893 204.59998018 -165.03577126 190.98978682 -165.0291267 177.37950695 C-165.02564071 169.74670842 -165.02782541 162.11401739 -165.04537773 154.4812355 C-165.06013547 147.98345309 -165.06068879 141.48585387 -165.04330682 134.98807491 C-165.03482329 131.67704344 -165.03476912 128.3666058 -165.04795837 125.05554962 C-165.06119862 121.45600874 -165.04959242 117.85734675 -165.03196716 114.25784302 C-165.04157217 113.22571658 -165.05117718 112.19359015 -165.06107324 111.13018715 C-164.92279251 97.33432643 -159.48003906 86.63667596 -150.21826172 76.65405273 C-138.2544221 65.33113309 -125.07064134 63.95274508 -109.36669922 64.11108398 C-107.72189727 64.11668977 -106.07709027 64.12095522 -104.43228149 64.12394714 C-100.13488567 64.1353187 -95.83780137 64.16471816 -91.54052734 64.19805908 C-87.14278373 64.22892723 -82.74498904 64.24248802 -78.34716797 64.25756836 C-69.74155738 64.28959649 -61.13619847 64.34069789 -52.53076172 64.40405273 C-52.56218262 63.31688965 -52.56218262 63.31688965 -52.59423828 62.20776367 C-52.67846867 58.85667345 -52.72975676 55.50580703 -52.78076172 52.15405273 C-52.81427734 51.01452148 -52.84779297 49.87499023 -52.88232422 48.70092773 C-53.04831741 34.09352733 -48.06718484 23.2695194 -38.21826172 12.65405273 C-27.09174517 2.12359957 -14.82975769 -0.05354331 0 0 Z M-16.46826172 38.15405273 C-21.96043114 46.8083803 -20.53076172 53.84492879 -20.53076172 64.40405273 C32.26923828 64.40405273 85.06923828 64.40405273 139.46923828 64.40405273 C140.39948379 50.28768021 140.39948379 50.28768021 135.18017578 37.82592773 C128.36937173 31.48860204 119.75083437 32.11081061 111.06738281 32.12939453 C109.83236023 32.1242836 108.59733765 32.11917267 107.32489014 32.11390686 C103.95282565 32.10242186 100.58100769 32.09993195 97.20894098 32.10247016 C94.38609611 32.10354379 91.56327363 32.09864646 88.74043357 32.09386474 C82.07628746 32.08278863 75.41219773 32.08232129 68.74804688 32.08837891 C61.89122235 32.0944162 55.03460315 32.08210966 48.17781365 32.06080884 C42.27438276 32.04314933 36.37101696 32.03719836 30.46756065 32.04044658 C26.94896027 32.04225284 23.43050635 32.0396895 19.91193008 32.02573204 C15.98450016 32.01073427 12.05732842 32.0201618 8.12988281 32.03173828 C6.97634308 32.02409454 5.82280334 32.01645081 4.63430786 32.00857544 C-2.87257665 32.05736374 -11.06041138 32.2642672 -16.46826172 38.15405273 Z M-128.46826172 102.15405273 C-131.98434154 107.69454215 -132.78195867 112.95767168 -132.7578125 119.44091797 C-132.75810455 120.10518295 -132.75839661 120.76944794 -132.75869751 121.45384216 C-132.75731735 123.62358206 -132.74181921 125.79296747 -132.72607422 127.96264648 C-132.7223394 129.47721672 -132.71949464 130.99178939 -132.71749878 132.50636292 C-132.70989923 136.47328479 -132.69028278 140.44005789 -132.66809082 144.40692139 C-132.64755272 148.46258533 -132.6384801 152.51827354 -132.62841797 156.57397461 C-132.60703304 164.51740191 -132.57294207 172.46070876 -132.53076172 180.40405273 C-73.21453488 198.80587444 -73.21453488 198.80587444 -13.84326172 217.02905273 C-11.95624039 217.60571686 -11.95624039 217.60571686 -10.03109741 218.19403076 C-6.54841848 219.25789391 -3.06512726 220.31972096 0.41845703 221.38061523 C1.43724945 221.69182312 2.45604187 222.00303101 3.50570679 222.32366943 C4.41881622 222.60107971 5.33192566 222.87848999 6.27270508 223.16430664 C7.06525192 223.40565338 7.85779877 223.64700012 8.67436218 223.8956604 C10.31868183 224.4494736 10.31868183 224.4494736 11.46923828 224.40405273 C11.48325684 223.45151611 11.48325684 223.45151611 11.49755859 222.47973633 C11.55152561 219.57874474 11.63511955 216.6793203 11.71923828 213.77905273 C11.73341797 212.7800293 11.74759766 211.78100586 11.76220703 210.75170898 C11.95689824 204.87203433 12.32891352 200.929856 16.46923828 196.40405273 C20.53282363 193.36102971 23.9878769 192.96751625 28.91821289 193 C29.65057663 192.99313675 30.38294037 192.9862735 31.13749695 192.97920227 C33.54905804 192.96095917 35.959967 192.96476807 38.37158203 192.97045898 C40.054003 192.96589588 41.7364221 192.96058993 43.4188385 192.95457458 C46.94181906 192.94564833 50.46457287 192.94806091 53.98754883 192.95800781 C58.4946622 192.96949544 63.00099185 192.94928718 67.50800228 192.92009068 C70.98166345 192.90171412 74.45513732 192.90202403 77.92883492 192.9077282 C79.59016583 192.90788124 81.25150957 192.90185073 82.91279411 192.88943672 C85.23931419 192.87450079 87.5643931 192.88522123 89.89086914 192.90234375 C90.91271301 192.8878418 90.91271301 192.8878418 91.9552002 192.87304688 C96.88289472 192.94870618 99.64842663 194.37106507 103.46923828 197.40405273 C107.60002842 202.01045624 107.02433603 207.85014738 107.15673828 213.71655273 C107.21152134 215.62307477 107.26733285 217.52956743 107.32397461 219.43603516 C107.37239583 221.09204102 107.42081706 222.74804688 107.46923828 224.40405273 C124.99718512 219.53789457 142.35776347 214.15709663 159.72333908 208.74774933 C163.62967842 207.53155034 167.53688008 206.31812924 171.4440918 205.10473633 C172.22736438 204.86148935 173.01063696 204.61824238 173.81764507 204.36762428 C175.40187602 203.87565566 176.98611184 203.38370276 178.57035255 202.89176559 C180.94252913 202.15506877 183.31461644 201.41808509 185.68669128 200.68106079 C200.41877612 196.10454519 215.16087688 191.56097522 229.90673828 187.02905273 C231.02654083 186.68481262 232.14634338 186.34057251 233.30007935 185.98590088 C239.35615394 184.12426894 245.41252397 182.2636023 251.46923828 180.40405273 C251.53899074 171.69343082 251.59217697 162.98290623 251.6246748 154.27206516 C251.64027833 150.22652325 251.66141841 146.18117353 251.69555664 142.13574219 C251.72834109 138.22591725 251.74613117 134.31627626 251.75387001 130.40632439 C251.75937949 128.92050217 251.77013755 127.43468912 251.78642845 125.948946 C252.25184943 113.17140862 252.25184943 113.17140862 247.1940155 101.83302307 C239.94544155 95.11678068 230.52223041 96.1162682 221.32473755 96.14335632 C219.87317867 96.14033397 218.42162138 96.13644407 216.97006691 96.13176376 C212.98987636 96.12148576 209.0097759 96.12366507 205.02957797 96.12794435 C200.733637 96.13041193 196.4377177 96.121397 192.14178467 96.11390686 C183.72886558 96.10115871 175.3159784 96.09936632 166.90305127 96.10170712 C160.06452319 96.10349032 153.2260048 96.1017406 146.38747787 96.09748268 C145.41409765 96.09688749 144.44071743 96.0962923 143.43784084 96.09567908 C141.46039916 96.09446732 139.48295748 96.09325319 137.5055158 96.0920367 C118.96169888 96.0811607 100.41790014 96.08332393 81.87408219 96.08942155 C64.91241895 96.09459068 47.95081315 96.08333546 30.98916127 96.06432333 C13.56974961 96.0449479 -3.84963488 96.03668842 -21.26905739 96.04044658 C-31.04745189 96.04235908 -40.8257975 96.03986629 -50.6041832 96.02573204 C-58.92868417 96.01382104 -67.25310616 96.01241021 -75.57760821 96.02452221 C-79.8237819 96.03041287 -84.06981111 96.03150516 -88.31597519 96.01951981 C-92.20584835 96.00866784 -96.09545629 96.0117561 -99.98531701 96.02578149 C-101.38969993 96.02843032 -102.79410359 96.02605601 -104.19846617 96.01804563 C-117.45655363 95.72080829 -117.45655363 95.72080829 -128.46826172 102.15405273 Z M-132.53076172 214.40405273 C-132.60091442 234.32769858 -132.65378056 254.25131929 -132.68619823 274.17506313 C-132.70165195 283.42648389 -132.72271282 292.6778278 -132.75708008 301.92919922 C-132.78702828 309.99486041 -132.80634759 318.06046593 -132.8130272 326.12618119 C-132.81693029 330.39496095 -132.82607179 334.66358149 -132.84795189 338.9323101 C-132.86840278 342.95501947 -132.87457824 346.97750489 -132.87008476 351.00026131 C-132.87090613 352.47198328 -132.87682043 353.9437132 -132.88837814 355.41539001 C-133.25426775 367.89535883 -133.25426775 367.89535883 -128.25572491 378.97740841 C-121.00003762 385.68795191 -111.58751952 384.69184836 -102.38626099 384.66474915 C-100.93470211 384.6677715 -99.48314482 384.6716614 -98.03159034 384.67634171 C-94.05139979 384.68661971 -90.07129934 384.6844404 -86.09110141 384.68016112 C-81.79516044 384.67769354 -77.49924114 384.68670846 -73.20330811 384.69419861 C-64.79038901 384.70694676 -56.37750183 384.70873915 -47.96457471 384.70639835 C-41.12604663 384.70461515 -34.28752823 384.70636487 -27.44900131 384.71062279 C-26.47562109 384.71121798 -25.50224087 384.71181317 -24.49936428 384.71242639 C-22.5219226 384.71363815 -20.54448092 384.71485228 -18.56703924 384.71606877 C-0.02322231 384.72694477 18.52057642 384.72478154 37.06439437 384.71868392 C54.02605761 384.71351479 70.98766342 384.72477001 87.94931529 384.74378214 C105.36872696 384.76315757 122.78811145 384.77141705 140.20753396 384.76765889 C149.98592845 384.76574639 159.76427406 384.76823918 169.54265976 384.78237343 C177.86716073 384.79428443 186.19158273 384.79569526 194.51608478 384.78358326 C198.76225846 384.7776926 203.00828767 384.77660031 207.25445175 384.78858566 C211.14432491 384.79943763 215.03393285 384.79634937 218.92379357 384.78232398 C220.32817649 384.77967515 221.73258015 384.78204945 223.13694273 384.79005984 C235.27809378 385.05820415 235.27809378 385.05820415 246.04556262 380.12914735 C250.85156973 374.92091786 251.72097459 368.58559934 251.70974731 361.75379944 C251.71249664 360.45681122 251.71524597 359.159823 251.71807861 357.8235321 C251.71100212 356.40383817 251.70373253 354.98414518 251.69628906 353.56445312 C251.69572437 352.0560507 251.69604264 350.54764772 251.69717407 349.03924561 C251.69774633 344.95916316 251.6860126 340.87919905 251.67202616 336.79914403 C251.65949763 332.52971199 251.65834663 328.26027705 251.65597534 323.99082947 C251.6497668 315.91265437 251.63336447 307.83453361 251.61327636 299.75638241 C251.59089786 290.55688642 251.57991903 281.3573878 251.56988549 272.15787137 C251.54899769 253.23990106 251.5138339 234.32198127 251.46923828 215.40405273 C246.38900926 216.00898186 241.67098001 217.10798396 236.78881836 218.65039062 C236.05107744 218.87873754 235.31333652 219.10708445 234.55323982 219.34235096 C232.11350969 220.09884034 229.67619167 220.86281926 227.23876953 221.62670898 C225.50549182 222.16538976 223.77205422 222.70355627 222.03846741 223.24124146 C216.45073928 224.97613964 210.86615623 226.72103471 205.28173828 228.46655273 C198.59789958 230.5540766 191.91362571 232.6402027 185.2286911 234.72421455 C183.32179008 235.31873895 181.41497566 235.91354118 179.50824738 236.50861931 C168.14540477 240.05326837 156.76935661 243.53812493 145.34429741 246.87703896 C142.25343412 247.78188822 139.16568646 248.6972664 136.07739258 249.61083984 C132.7394686 250.59808629 129.40042549 251.57569313 126.05044556 252.52127075 C123.05441448 253.36723976 120.07029283 254.24678009 117.08642578 255.13452148 C115.79575951 255.48149582 115.79575951 255.48149582 114.47901917 255.83547974 C112.25550068 256.51682472 110.41553213 257.13096132 108.46923828 258.40405273 C106.83906362 261.85033395 106.83906362 261.85033395 106.46923828 265.40405273 C103.07092625 278.25085084 97.23830084 289.35766526 85.71923828 296.71655273 C73.38279805 303.42682855 60.79955961 305.4747703 47.00048828 302.70874023 C33.77589222 298.65274299 23.33029943 290.87950103 16.59423828 278.65405273 C14.1398462 273.48259116 13.49726994 268.16542149 12.92626953 262.50561523 C11.20951362 258.85118039 10.60201073 258.75321832 6.97216797 257.3984375 C6.06678787 257.05947449 5.16140778 256.72051147 4.22859192 256.37127686 C0.16733777 254.94770326 -3.91473457 253.63511305 -8.03466797 252.39233398 C-8.95555206 252.11048752 -9.87643616 251.82864105 -10.82522583 251.53825378 C-13.91341547 250.59385615 -17.00334991 249.65529886 -20.09326172 248.71655273 C-23.48041575 247.68232078 -26.86706619 246.64645115 -30.25367737 245.61044312 C-32.75047593 244.84666089 -35.24741917 244.08335152 -37.74449158 243.32046509 C-49.15186812 239.83405321 -60.5489319 236.31451378 -71.94482422 232.79077148 C-73.80042731 232.21713817 -75.65603339 231.64351451 -77.51164246 231.06990051 C-84.94121431 228.77306323 -92.37068554 226.47590208 -99.79959106 224.1769104 C-104.21790421 222.80967045 -108.63663425 221.44378581 -113.05566025 220.0788517 C-114.70647847 219.5686682 -116.35713767 219.05796984 -118.00763321 218.54674339 C-120.27365757 217.8449065 -122.54020224 217.14477616 -124.80688477 216.44506836 C-125.47911355 216.23640294 -126.15134233 216.02773752 -126.84394169 215.81274891 C-129.63596037 214.82052238 -129.63596037 214.82052238 -132.53076172 214.40405273 Z M43.46923828 224.40405273 C43.40736328 229.49842773 43.34548828 234.59280273 43.28173828 239.84155273 C43.25442627 241.4302417 43.22711426 243.01893066 43.19897461 244.65576172 C42.81607209 256.62245062 42.81607209 256.62245062 47.921875 267.00732422 C52.63932866 271.10021964 55.87290842 271.75994894 61.93017578 271.68139648 C65.6938423 271.27028829 67.68714016 269.92118913 70.46923828 267.40405273 C75.26163499 261.31641368 75.59711403 256.50086529 75.56689453 248.91577148 C75.56439697 247.62888428 75.56189941 246.34199707 75.55932617 245.01611328 C75.55022217 243.3910083 75.54111816 241.76590332 75.53173828 240.09155273 C75.51111328 234.91467773 75.49048828 229.73780273 75.46923828 224.40405273 C64.90923828 224.40405273 54.34923828 224.40405273 43.46923828 224.40405273 Z " fill="#6C88E6" transform="translate(196.53076171875,47.595947265625)"/>
</svg>
